<?xml version="1.0" encoding="utf-8"?><svg fill="#000000" width="800px" height="800px" viewBox="0 0 32 32" xmlns="http://www.w3.org/2000/svg">
    <path d="M25,3.875H7c-1.719,0-3.125,1.406-3.125,3.125v18c0,1.719,1.406,3.125,3.125,3.125h18c1.719,0,3.125-1.406,3.125-3.125v-18C28.125,5.281,26.719,3.875,25,3.875z M26.125,25c0,0.625-0.5,1.125-1.125,1.125H7c-0.625,0-1.125-0.5-1.125-1.125v-18c0-0.625,0.5-1.125,1.125-1.125h18c0.625,0,1.125,0.5,1.125,1.125V25z"/>
    <path d="M10,13.875H8c-0.563,0-1-0.438-1-1v-2c0-0.563,0.438-1,1-1h2c0.563,0,1,0.438,1,1v2C11,13.438,10.563,13.875,10,13.875z"/>
    <path d="M24,13.875h-2c-0.563,0-1-0.438-1-1v-2c0-0.563,0.438-1,1-1h2c0.563,0,1,0.438,1,1v2C25,13.438,24.563,13.875,24,13.875z"/>
    <path d="M10,24.125H8c-0.563,0-1-0.438-1-1v-2c0-0.563,0.438-1,1-1h2c0.563,0,1,0.438,1,1v2C11,23.688,10.563,24.125,10,24.125z"/>
    <path d="M24,24.125h-2c-0.563,0-1-0.438-1-1v-2c0-0.563,0.438-1,1-1h2c0.563,0,1,0.438,1,1v2C25,23.688,24.563,24.125,24,24.125z"/>
</svg>