<?xml version="1.0" encoding="utf-8"?><svg fill="#000000" width="800px" height="800px" viewBox="0 0 32 32" xmlns="http://www.w3.org/2000/svg">
    <path d="M19.125,2.469c-0.625-0.344-1.406-0.188-1.875,0.375l-7,8.344H4c-1.125,0-2,0.875-2,2v5.625c0,1.125,0.875,2,2,2h6.25l7,8.344c0.281,0.344,0.688,0.5,1.094,0.5c0.25,0,0.5-0.063,0.781-0.188c0.625-0.344,1-1,1-1.688V4.156C20.125,3.469,19.75,2.813,19.125,2.469z"/>
    <path d="M28.406,10.188c-0.563-0.563-1.5-0.563-2.063,0l-3.156,3.156l-3.156-3.156c-0.563-0.563-1.5-0.563-2.063,0s-0.563,1.5,0,2.063l3.156,3.156l-3.156,3.156c-0.563,0.563-0.563,1.5,0,2.063c0.281,0.281,0.656,0.438,1.031,0.438s0.75-0.156,1.031-0.438l3.156-3.156l3.156,3.156c0.281,0.281,0.656,0.438,1.031,0.438s0.75-0.156,1.031-0.438c0.563-0.563,0.563-1.5,0-2.063l-3.156-3.156l3.156-3.156C28.969,11.688,28.969,10.75,28.406,10.188z"/>
</svg>