<?xml version="1.0" encoding="utf-8"?><svg fill="#000000" width="800px" height="800px" viewBox="0 0 32 32" xmlns="http://www.w3.org/2000/svg">
    <path d="M19.125,2.469c-0.625-0.344-1.406-0.188-1.875,0.375l-7,8.344H4c-1.125,0-2,0.875-2,2v5.625c0,1.125,0.875,2,2,2h6.25l7,8.344c0.281,0.344,0.688,0.5,1.094,0.5c0.25,0,0.5-0.063,0.781-0.188c0.625-0.344,1-1,1-1.688V4.156C20.125,3.469,19.75,2.813,19.125,2.469z"/>
    <path d="M23.125,10.281c-0.438-0.375-1.063-0.313-1.438,0.125c-0.375,0.438-0.313,1.063,0.125,1.438c1.781,1.5,1.781,4.313,0,5.813c-0.438,0.375-0.5,1-0.125,1.438c0.188,0.219,0.438,0.313,0.688,0.313c0.281,0,0.563-0.125,0.75-0.375c2.625-2.25,2.625-6.5,0-8.75C23.219,10.25,23.188,10.25,23.125,10.281z"/>
    <path d="M26.219,6.594c-0.438-0.375-1.063-0.313-1.438,0.125c-0.375,0.438-0.313,1.063,0.125,1.438c3.563,3.063,3.563,8.938,0,12c-0.438,0.375-0.5,1-0.125,1.438c0.188,0.219,0.438,0.313,0.688,0.313c0.281,0,0.563-0.125,0.75-0.375c4.438-3.813,4.438-11.438,0-15.25C26.313,6.563,26.281,6.563,26.219,6.594z"/>
</svg>